<?xml version="1.0" encoding="UTF-8"?>
<svg id="_圖層_14" data-name="圖層_14" xmlns="http://www.w3.org/2000/svg" viewBox="0 0 425.2 425.2">
  <defs>
    <style>
      .cls-1 {
        fill: #040000;
      }

      .cls-2 {
        fill: #fff;
      }

      .cls-3 {
        stroke-width: 3.06px;
      }

      .cls-3, .cls-4 {
        fill: none;
        stroke: #231815;
        stroke-linecap: round;
        stroke-linejoin: round;
      }

      .cls-5 {
        fill: #231815;
      }

      .cls-6 {
        fill: #eccc8a;
      }

      .cls-4 {
        stroke-width: 3px;
      }

      .cls-7 {
        fill: #dcbb81;
      }

      .cls-8 {
        fill: #e9e3d9;
      }

      .cls-9 {
        fill: #f7f3ea;
      }
    </style>
  </defs>
  <g>
    <path class="cls-6" d="M274.97,286.87c.1.21.21.41.31.52l1.86,3.61c.31,1.14.83,2.38,1.34,3.51-1.55.52-3.1.93-4.65,1.24.41-3.41,0-6.92-1.03-10.33-.93-3.2-2.48-6.3-4.23-9.09-3.72-5.78-8.99-9.71-15.7-8.57h-.1c-4.85.83-8.88,4.03-13.12,6.61-5.06,3.1-10.53,5.27-16.21,6.71.31-.1.41-.31.31-.52-.31-.62-6.09-4.34-6.61-4.75-10.95-7.23-28.71-11.15-40.07-17.66-10.53-6.2-16.11-12.7-25.61-20.55-16.01-13.22-28.51-30.05-30.98-48.75-.52-3.72-1.24-5.99-3.51-9.3-2.48-3.51-4.65-6.92-5.99-10.74.72,1.76,2.38,3.1,4.13,3.92,2.48,1.14,5.16,1.34,7.75,2.07,7.54,2.27,13.01,8.99,15.8,16.32,2.27,6.2,1.65,12.7,3.41,18.9,1.34,4.34,4.65,8.06,7.33,11.77,7.75,10.95,18.28,19.31,29.85,25.92,17.56,10.02,37.39,16.42,57.73,16.42,20.45.1,41.21-6.4,57.63-19.52,5.68-4.54,10.84-10.02,14.98-16.01,6.2-7.02,11.36-14.77,15.08-23.34,7.23-16.63,8.37-36.46.83-52.88-6.71-14.98-19.83-26.03-33.88-34.39-31.29-18.69-68.89-26.13-104.83-20.66-.31,0-.62-.1-.93-.1l-2.07.52c1.03-.21,1.96-.31,3-.41,26.44,2.58,59.18,7.23,80.87,22.72-4.54-1.55-9.19-2.89-13.84-3.92-33.26-7.64-69.71-9.71-93.67,18.8-2.48,2.89-4.75,6.09-7.75,8.37-5.16,3.82-8.47,2.17-13.84,1.24-4.23-.83-11.46-1.34-12.91,4.03-1.14,4.03,2.89,7.44,6.4,9.61-2.48,3.3-7.44,3-11.67,2.89-4.13-.1-9.5,1.45-9.71,5.68-.1.72.1,1.45.31,2.07-.31-.83-.62-1.65-.83-2.58-.62-2.79-1.65-5.47-3-7.95-1.14-2.07-2.48-3.92-4.03-5.68.52.62-3.3,12.29-3.61,13.84-.83,4.96-1.34,9.91-1.55,14.98-.21,9.91.93,19.93,3.61,29.64,4.44,16.21,13.12,32.64,27.68,41.42,7.23,4.34,12.81,10.33,19.93,15.08,7.64,5.06,19.21,8.99,28.09,11.57,6.4,1.86,13.01,3.1,19.62,3,6.4,0,13.32,1.76,19.31-1.24,1.24-.52,5.99.62,7.23.21-9.3,2.38-19.21,2.89-28.71,1.96-9.09-.93-17.97-2.89-26.75-5.37-7.54-3-14.87-6.71-21.79-11.26-21.48-13.84-40.8-30.05-46.37-55.98-4.85-23.24-2.58-48.03,6.71-69.92,6.51-15.39,16.42-29.33,28.82-40.69,3.92-3.51,16.21-9.71,17.04-14.87.52-3-3.61-8.78-4.75-11.67-1.45-3.51-2.58-7.23-2.89-11.05-.72-9.5,1.14-19.21,6.3-27.27,3.41-5.27,8.16-9.5,13.53-12.7,6.71-3.82,14.56-5.89,22.41-5.37,13.94.93,27.16,9.91,33.26,22.62,5.68,11.98,4.75,26.96-2.38,38.21-.52.72,0,1.76.93,1.76,7.13,0,14.05,1.86,21.17,1.86,3.51,0,7.02.72,10.22,2.07.93.31,4.03,1.65,6.09,3,.72.52,1.76,0,1.76-.93.1-14.46,4.75-29.02,14.56-39.66,10.33-11.36,26.75-17.56,41.73-13.84,8.99,2.27,16.94,7.75,23.44,14.25,6.71,6.71,12.29,14.98,14.25,24.27,2.17,10.22-.41,21.38-6.82,29.54-6.61,8.57-15.29,11.67-25.2,13.74-.83.21-1.24,1.14-.72,1.86,3.1,3.92,7.75,7.33,10.95,11.36,3.92,4.96,7.44,10.22,10.33,15.91,13.01,24.99,15.7,56.7,6.82,83.45-8.99,27.37-29.74,50.09-55.67,62.38-2.79-.31-5.47-.83-8.26-1.55-3.41-.83-6.71-1.86-10.02-3.2l1.55,2.89ZM321.55,84.86c2.58-5.58,3.2-12.39,0-17.66-2.89-4.85-8.57-7.64-14.25-8.06-8.68-.72-27.89,7.23-24.58,18.9,1.24,4.44,7.13,6.61,10.74,8.68,6.09,3.61,11.77,7.75,16.94,12.7,4.23-4.44,8.47-8.99,11.15-14.56ZM196.58,62.45c3.3-6.4-2.89-16.63-8.57-19.42-6.4-3-14.56.21-18.38,6.2-3.72,5.89-3.72,13.63-1.45,20.35.41,1.14.93,2.38,1.96,3,1.86,1.03,4.13-.31,5.89-1.45,5.58-3.51,17.45-2.79,20.55-8.68Z"/>
    <path class="cls-6" d="M336.93,305.26c.41,9.5.21,20.55-7.23,26.34-5.68,4.44-13.94,4.13-20.45,1.14-6.51-3-11.77-8.16-16.83-13.22l-2.27-4.23c-.1,0,0-.1,0-.1,3.82,4.85,7.85,9.19,11.88,12.5,4.13,3.3,12.08,6.09,17.04,6.4,4.96.31,12.39-2.58,14.15-7.85.83-2.48.21-6.3-3.51-7.33-1.24-.41-2.38-1.03-3.72-1.14-14.46-2.07-30.98-13.43-43.58-24.68,2.69-1.14,5.58-2.48,8.78-4.03.21-.1.31-.21.52-.31,7.64,1.14,15.49,1.14,23.24-.1,5.58-.83,11.88-2.17,16.42,1.14,4.54,3.41,5.27,9.81,5.58,15.49Z"/>
    <path class="cls-7" d="M329.7,318.89c3.72,1.03,4.34,4.85,3.51,7.33-1.76,5.27-9.19,8.16-14.15,7.85-4.96-.31-12.91-3.1-17.04-6.4-4.03-3.3-8.06-7.64-11.88-12.5-.1-.1-.1-.21-.21-.31-2.79-7.23-6.2-14.15-10.22-20.76.93-.31,1.76-.62,2.69-1.03,12.6,11.26,29.12,22.62,43.58,24.68,1.34.1,2.48.72,3.72,1.14Z"/>
    <path class="cls-6" d="M325.47,152.4c7.54,16.42,6.4,36.25-.83,52.88-3.72,8.57-8.88,16.32-15.08,23.34,8.26-11.26,13.53-24.68,14.46-38.42,2.58-36.35-25.2-59.39-56.39-70.13-21.69-15.49-54.43-20.14-80.87-22.72,35.94-5.47,73.54,1.96,104.83,20.66,14.05,8.37,27.16,19.42,33.88,34.39Z"/>
    <path class="cls-8" d="M267.63,120.08c31.19,10.74,58.97,33.77,56.39,70.13-.93,13.74-6.2,27.16-14.46,38.42-5.68,6.61-12.39,12.5-19.42,17.66,7.23-22.72,18.18-52.26,13.74-76.01-.52-2.69-1.24-5.27-2.17-7.75,0-.41-.21-.72-.31-1.14-6.3-16.21-18.38-29.54-32.12-40.07-.52-.41-1.03-.83-1.65-1.24Z"/>
    <path class="cls-9" d="M321.55,67.2c3.2,5.27,2.58,12.08,0,17.66-2.69,5.58-6.92,10.12-11.15,14.56-5.16-4.96-10.84-9.09-16.94-12.7-3.61-2.07-9.5-4.23-10.74-8.68-3.3-11.67,15.91-19.62,24.58-18.9,5.68.41,11.36,3.2,14.25,8.06Z"/>
    <path class="cls-9" d="M303.88,170.27c4.44,23.75-6.51,53.29-13.74,76.01,7.02-5.16,13.74-11.05,19.42-17.66-4.13,5.99-9.3,11.46-14.98,16.01-16.42,13.12-37.18,19.62-57.63,19.52-20.35,0-40.18-6.4-57.73-16.42-11.57-6.61-22.1-14.98-29.85-25.92-2.69-3.72-5.99-7.44-7.33-11.77-1.76-6.2-1.14-12.7-3.41-18.9-2.79-7.33-8.26-14.05-15.8-16.32-2.58-.72-5.27-.93-7.75-2.07-1.76-.83-3.41-2.17-4.13-3.92-.21-.62-.41-1.34-.31-2.07.21-4.23,5.58-5.78,9.71-5.68,4.23.1,9.19.41,11.67-2.89-3.51-2.17-7.54-5.58-6.4-9.61,1.45-5.37,8.68-4.85,12.91-4.03,5.37.93,8.68,2.58,13.84-1.24,3-2.27,5.27-5.47,7.75-8.37,23.96-28.51,60.42-26.44,93.67-18.8,4.65,1.03,9.3,2.38,13.84,3.92.62.41,1.14.83,1.65,1.24,13.74,10.53,25.82,23.86,32.12,40.07.1.41.31.72.31,1.14.93,2.48,1.65,5.06,2.17,7.75ZM277.96,203.32c11.88-9.71,12.7-39.35-8.99-33.88-5.27,1.34-9.4,5.78-11.67,10.84-6.2,14.15,4.75,36.04,20.66,23.03ZM251.52,213.24c1.45-3.51.1-8.06-3.2-9.91-3.61-1.96-12.08-5.06-15.8-.62-1.45,3.51-1.24,7.64.72,10.84,1.96,3.2,5.47,5.37,9.19,5.37,3.82.1,7.64-2.17,9.09-5.68ZM220.95,202.8c12.08-6.82,10.64-27.47,1.24-35.84-4.75-4.13-11.88-5.68-17.56-2.89-6.4,3.2-9.3,11.15-9.4,18.38-.21,12.91,11.67,28.3,25.72,20.35ZM186.04,120.39c-1.55-.1-3.1.41-4.54,1.03-2.17.83-3.51,2.69-5.16,4.23-1.86,1.76-3.72,3.51-5.37,5.37-7.54,8.06-13.74,17.35-18.28,27.37-.93,1.96-1.76,3.92-1.65,5.99,0,2.17,1.14,4.34,3.1,4.96,2.17.72,4.54-.62,5.78-2.48,1.24-1.96,1.65-4.23,2.17-6.51.83-3.92,2.07-7.85,3.51-11.57,2.07-4.96,4.65-9.71,7.75-14.15,1.45-2.27,3.1-4.34,4.96-6.4.83-.93,1.76-1.96,2.69-2.89.83-.93,1.34-1.96,2.38-2.69.41-.31.93-.72,1.45-1.14.52-.31.93-.62,1.24-1.14Z"/>
    <path class="cls-6" d="M290.15,315.28c9.19,24.17,11.05,51.23,4.54,76.22-1.03,4.03-2.48,8.37-5.89,10.64-3,1.96-6.82,2.07-10.43,2.07h-24.68c-6.92,0-12.39-5.99-11.88-12.91.62-7.54.1-15.18-1.45-22.62.72-.31,1.34-.83,1.96-1.24-1.24,1.76-.72,4.13-.31,6.3.1,1.03.31,2.07.41,3.1,0,1.03.21,2.07.1,3-.1,2.17.72,4.44.52,6.61-.1,1.03-.1,2.27-.21,3.3,0,.93-.83,1.55-.72,2.48.41,1.86.52,3.61,1.24,5.37.21.72,1.55,1.14,2.07,1.76,1.96,2.69,4.65,4.13,7.95,4.23,3.41.1,6.71-.52,10.12-.62,4.96-.1,9.91,1.03,14.87.83,1.76-.1,3.61-.41,5.37-.72.83-.1,1.65-.31,2.27-.72,1.34-.83,4.65-1.14,4.34-2.69-.31-1.55-4.03-4.23-5.06-5.37-3.72-4.34-8.88-7.33-13.53-10.74-4.96-3.61-10.64-7.95-13.43-13.53-1.76-3.3-2.89-6.92-3.51-10.53-.31-1.86-.41-3.72-.41-5.58,0-1.55.41-3.2.41-4.75-.21.83-1.24.93-1.65,1.65-1.65,2.89-3.72,5.68-5.47,8.57,4.44-8.68,8.88-17.14,13.53-26.34,5.68-11.46,10.95-24.48,12.6-37.28,1.55-.31,3.1-.72,4.65-1.24,2.69,7.02,6.82,14.15,11.46,20.35.1.1.1.21.21.31,0,0-.1.1,0,.1Z"/>
    <path class="cls-6" d="M282.4,293.07c-.93.41-1.76.72-2.69,1.03h-.1c-.93-1.55-1.86-3.1-2.89-4.65-.52-.72-.93-1.34-1.45-2.07-.1-.1-.21-.31-.31-.52l-1.55-2.89c3.3,1.34,6.61,2.38,10.02,3.2,2.79.72,5.47,1.24,8.26,1.55-.21.1-.31.21-.52.31-3.2,1.55-6.09,2.89-8.78,4.03Z"/>
    <path class="cls-7" d="M290.36,399.66c.31,1.55-3,1.86-4.34,2.69-.62.41-1.45.62-2.27.72-1.76.31-3.61.62-5.37.72-4.96.21-9.91-.93-14.87-.83-3.41.1-6.71.72-10.12.62-3.3-.1-5.99-1.55-7.95-4.23-.52-.62-1.86-1.03-2.07-1.76-.72-1.76-.83-3.51-1.24-5.37-.1-.93.72-1.55.72-2.48.1-1.03.1-2.27.21-3.3.21-2.17-.62-4.44-.52-6.61.1-.93-.1-1.96-.1-3-.1-1.03-.31-2.07-.41-3.1-.41-2.17-.93-4.54.31-6.3,0-.1.1-.1.1-.1,1.24-1.03,2.27-2.27,3-3.72.31-.72.72-1.45,1.03-2.07.41-.72.83-1.45,1.24-2.17,1.76-2.89,3.82-5.68,5.47-8.57.41-.72,1.45-.83,1.65-1.65,0,1.55-.41,3.2-.41,4.75,0,1.86.1,3.72.41,5.58.62,3.61,1.76,7.23,3.51,10.53,2.79,5.58,8.47,9.91,13.43,13.53,4.65,3.41,9.81,6.4,13.53,10.74,1.03,1.14,4.75,3.82,5.06,5.37Z"/>
    <path class="cls-2" d="M289.94,314.86l-10.95-20.45.62-.31h.1c4.03,6.61,7.44,13.53,10.22,20.76Z"/>
    <path class="cls-6" d="M278.99,294.41l10.95,20.45c-4.65-6.2-8.78-13.32-11.46-20.35.21,0,.31-.1.52-.1Z"/>
    <path class="cls-2" d="M268.98,169.45c21.69-5.47,20.86,24.17,8.99,33.88-15.91,13.01-26.85-8.88-20.66-23.03,2.27-5.06,6.4-9.5,11.67-10.84ZM274.97,203.42c3.72-3.51,5.16-8.99,3.1-13.63-1.96-4.65-7.23-7.64-12.19-7.02-4.96.72-9.19,5.27-9.3,10.22-.1,5.06,4.23,9.09,8.37,11.46,1.65.93,3.51,1.55,5.47,1.24.41,0,.83-.1,1.34-.31,1.14-.41,2.27-1.14,3.2-1.96Z"/>
    <path class="cls-2" d="M279.61,294.1l-.62.31-1.86-3.41c-.21-.52-.41-1.03-.41-1.55,1.03,1.55,1.96,3.1,2.89,4.65Z"/>
    <path class="cls-6" d="M277.14,291.01l1.86,3.41c-.21,0-.31.1-.52.1-.52-1.14-1.03-2.38-1.34-3.51Z"/>
    <path class="cls-1" d="M278.06,189.79c2.07,4.65.62,10.12-3.1,13.63-.93.83-2.07,1.55-3.2,1.96-.52.21-.93.31-1.34.31-1.96.31-3.82-.31-5.47-1.24-4.13-2.38-8.47-6.4-8.37-11.46.1-4.96,4.34-9.5,9.3-10.22,4.96-.62,10.22,2.38,12.19,7.02ZM272.18,198.57c.93-1.45,1.03-3.3.83-5.06-.1-.41-.21-.83-.41-1.24-1.45-2.38-5.16-3.41-7.33-1.55-2.38,1.86-2.07,5.99-.41,8.26.72.93,1.76,1.65,2.89,1.76,1.03.1,2.07-.1,3-.72.52-.41,1.03-.93,1.45-1.45Z"/>
    <path class="cls-2" d="M277.14,291.01l-1.86-3.61c.52.72.93,1.34,1.45,2.07,0,.52.21,1.03.41,1.55Z"/>
    <path class="cls-6" d="M272.8,285.43c1.03,3.41,1.45,6.92,1.03,10.33-.21.1-.52.1-.72.1.31-3.51.31-6.92-.31-10.43Z"/>
    <path class="cls-6" d="M273.11,295.86c.21,0,.52,0,.72-.1-1.65,12.81-6.92,25.82-12.6,37.28-4.65,9.19-9.09,17.66-13.53,26.34-.41.72-.83,1.45-1.24,2.17-.41.52-.62.93-.93,1.45-.52.93-.93,1.86-1.65,2.69-.41.52-1.03,1.03-1.45,1.65,0,0-.1,0-.1.1-.62.41-1.24.93-1.96,1.24-.1-.41-.1-.72-.31-1.14,3.2-1.96,4.54-5.58,6.61-8.88,8.47-13.01,15.29-26.85,20.76-41.31,2.69-6.92,5.06-14.15,5.68-21.48Z"/>
    <path class="cls-7" d="M272.8,285.43c.62,3.51.62,6.92.31,10.43-4.54.83-9.5.83-15.91-.31l-1.86-.31c1.76-8.68,1.14-17.56-2.48-26.96v-.52c6.71-1.14,11.98,2.79,15.7,8.57,1.76,2.79,3.3,5.89,4.23,9.09Z"/>
    <path class="cls-2" d="M273,193.51c.21,1.76.1,3.61-.83,5.06-.41.52-.93,1.03-1.45,1.45-.93.62-1.96.83-3,.72-1.14-.1-2.17-.83-2.89-1.76-1.65-2.27-1.96-6.4.41-8.26,2.17-1.86,5.89-.83,7.33,1.55.21.41.31.83.41,1.24Z"/>
    <path class="cls-7" d="M240.06,367.54c-.41.31-.93.52-1.45.72-3,1.24-7.54.72-10.84.41-1.65-.1-3.3-.21-4.96-.31-1.24-.21-2.07-.52-3.41-.31-5.47.93-10.33,4.54-13.63,8.78-3,3.72-6.61,3.61-6.71,12.6,0,.93-.93,1.86-1.14,2.79-.1,1.03.31,2.17.41,3.1.21,2.38-1.55,3.72-2.38,5.89-.31,1.03-.83,1.96-1.45,2.79-1.45,1.76-3.82,2.69-6.09,2.79-1.14.1-.93.93-2.07.72-.72-.21-2.69-.41-3.2-.93-.52-.62-.52-2.38-.62-3.1-.1-1.14-.21-2.27-.31-3.41-1.14-11.46.21-24.06,8.06-33.26,4.54-5.27,10.74-8.88,16.73-12.7,15.6-10.12,30.26-22.41,39.66-38.01,4.23-6.92,7.23-13.84,8.68-20.86l1.86.31c6.4,1.14,11.36,1.14,15.91.31-.62,7.33-3,14.56-5.68,21.48-5.47,14.46-12.29,28.3-20.76,41.31-2.07,3.3-3.41,6.92-6.61,8.88Z"/>
    <path class="cls-6" d="M252.86,268.28c3.61,9.4,4.23,18.28,2.48,26.96-14.56-2.58-28.61-7.33-43.38-8.16-15.18-.83-30.05-3.82-44-9.4,8.78,2.48,17.66,4.44,26.75,5.37,9.5.93,19.42.41,28.71-1.96,5.68-1.45,11.15-3.61,16.21-6.71,4.23-2.58,8.26-5.78,13.12-6.61h.1v.52Z"/>
    <path class="cls-5" d="M248.32,203.32c3.3,1.86,4.65,6.4,3.2,9.91s-5.27,5.78-9.09,5.68c-3.72,0-7.23-2.17-9.19-5.37-1.96-3.2-2.17-7.33-.72-10.84,3.72-4.44,12.19-1.34,15.8.62Z"/>
    <path class="cls-6" d="M255.34,295.24c-1.45,7.02-4.44,13.94-8.68,20.86-9.4,15.6-24.06,27.89-39.66,38.01-5.99,3.82-12.19,7.44-16.73,12.7-7.85,9.19-9.19,21.79-8.06,33.26.1,1.14.21,2.27.31,3.41.1.72.1,2.48.62,3.1.52.52,2.48.72,3.2.93,1.14.21.93-.62,2.07-.72,2.27-.1,4.65-1.03,6.09-2.79.62-.83,1.14-1.76,1.45-2.79.83-2.17,2.58-3.51,2.38-5.89-.1-.93-.52-2.07-.41-3.1.21-.93,1.14-1.86,1.14-2.79.1-8.99,3.72-8.88,6.71-12.6,3.3-4.23,8.16-7.85,13.63-8.78,1.34-.21,2.17.1,3.41.31,1.65.1,3.3.21,4.96.31,3.3.31,7.85.83,10.84-.41.52-.21,1.03-.41,1.45-.72.21.41.21.72.31,1.14-2.48,1.34-5.47,1.86-8.37,1.03-8.06-2.17-17.25-.52-23.75,4.96-6.09,5.06-9.5,13.01-9.5,20.86,0,6.3-4.54,11.77-10.95,12.29-13.94,1.24-27.99.72-39.76-6.2-14.46-8.37-22.52-24.89-26.44-41.42-4.34-17.76-4.85-36.46-1.55-54.53l10.22-32.64c4.75-7.33,12.08-3.2,19.21-.93,6.09,1.96,12.29,3.82,18.49,5.58,13.94,5.58,28.82,8.57,44,9.4,14.77.83,28.82,5.58,43.38,8.16Z"/>
    <path class="cls-6" d="M246.46,361.55c-.31.62-.72,1.34-1.03,2.07-.72,1.45-1.76,2.69-3,3.72.41-.62,1.03-1.14,1.45-1.65.72-.83,1.14-1.76,1.65-2.69.31-.52.52-.93.93-1.45Z"/>
    <path class="cls-1" d="M227.46,183.39c1.86,3.3,1.45,7.75-1.03,10.74-2.58,3.1-5.78,5.16-9.09,7.64-2.58,1.96-6.51,1.45-8.88-.72-2.48-2.17-3.41-5.58-3-8.78.52-3.2,2.17-6.2,4.34-8.57,2.07-2.48,4.85-4.54,7.95-4.96,3.82-.62,7.85,1.34,9.71,4.65ZM223.12,194.65c.1-.41.1-.93.1-1.34-.41-3.72-3.82-6.92-7.64-5.16-2.07,1.03-3.41,3.41-3.2,5.78.21,1.86,1.55,3.82,3.41,4.54,1.76.72,4.13-.41,5.58-1.55.41-.41.83-.72,1.24-1.24.21-.31.41-.62.52-1.03Z"/>
    <path class="cls-2" d="M222.19,166.97c9.4,8.37,10.84,29.02-1.24,35.84-14.05,7.95-25.92-7.44-25.72-20.35.1-7.23,3-15.18,9.4-18.38,5.68-2.79,12.81-1.24,17.56,2.89ZM226.42,194.13c2.48-3,2.89-7.44,1.03-10.74s-5.89-5.27-9.71-4.65c-3.1.41-5.89,2.48-7.95,4.96-2.17,2.38-3.82,5.37-4.34,8.57-.41,3.2.52,6.61,3,8.78,2.38,2.17,6.3,2.69,8.88.72,3.3-2.48,6.51-4.54,9.09-7.64Z"/>
    <path class="cls-7" d="M223.74,280.57c.1.21,0,.41-.31.52-1.24.41-5.99-.72-7.23-.21-5.99,3-12.91,1.24-19.31,1.24-6.61.1-13.22-1.14-19.62-3-8.88-2.58-20.45-6.51-28.09-11.57-7.13-4.75-12.7-10.74-19.93-15.08-14.56-8.78-23.24-25.2-27.68-41.42-2.69-9.71-3.82-19.73-3.61-29.64.21-5.06.72-10.02,1.55-14.98.31-1.55,4.13-13.22,3.61-13.84,1.55,1.76,2.89,3.61,4.03,5.68,1.34,2.48,2.38,5.16,3,7.95.21.93.52,1.76.83,2.58,1.34,3.82,3.51,7.23,5.99,10.74,2.27,3.3,3,5.58,3.51,9.3,2.48,18.69,14.98,35.53,30.98,48.75,9.5,7.85,15.08,14.36,25.61,20.55,11.36,6.51,29.12,10.43,40.07,17.66.52.41,6.3,4.13,6.61,4.75Z"/>
    <path class="cls-2" d="M223.22,193.3c0,.41,0,.93-.1,1.34s-.31.72-.52,1.03c-.41.52-.83.83-1.24,1.24-1.45,1.14-3.82,2.27-5.58,1.55-1.86-.72-3.2-2.69-3.41-4.54-.21-2.38,1.14-4.75,3.2-5.78,3.82-1.76,7.23,1.45,7.64,5.16Z"/>
    <path class="cls-9" d="M188,43.03c5.68,2.79,11.88,13.01,8.57,19.42-3.1,5.89-14.98,5.16-20.55,8.68-1.76,1.14-4.03,2.48-5.89,1.45-1.03-.62-1.55-1.86-1.96-3-2.27-6.71-2.27-14.46,1.45-20.35,3.82-5.99,11.98-9.19,18.38-6.2Z"/>
    <path class="cls-6" d="M186.77,97.36c-1.03.1-1.96.21-3,.41l2.07-.52c.31,0,.62.1.93.1Z"/>
    <path class="cls-8" d="M181.5,121.42c1.45-.62,3-1.14,4.54-1.03-.31.52-.72.83-1.24,1.14-.52.41-1.03.83-1.45,1.14-1.03.72-1.55,1.76-2.38,2.69-.93.93-1.86,1.96-2.69,2.89-1.86,2.07-3.51,4.13-4.96,6.4-3.1,4.44-5.68,9.19-7.75,14.15-1.45,3.72-2.69,7.64-3.51,11.57-.52,2.27-.93,4.54-2.17,6.51-1.24,1.86-3.61,3.2-5.78,2.48-1.96-.62-3.1-2.79-3.1-4.96-.1-2.07.72-4.03,1.65-5.99,4.54-10.02,10.74-19.31,18.28-27.37,1.65-1.86,3.51-3.61,5.37-5.37,1.65-1.55,3-3.41,5.16-4.23Z"/>
    <path class="cls-6" d="M131.41,269.52l-1.14,3.51c-.1.21-.21.31-.31.52-4.85,8.06-7.33,18.9-9.19,28.09-.31,1.34-.52,2.69-.72,4.03l-.72,2.27c-4.03,5.99-8.16,12.08-14.05,16.21-5.89,4.13-13.94,5.99-20.35,2.69-8.47-4.34-10.64-15.18-11.98-24.58-.72-5.58-1.24-12.08,2.58-16.21,3.92-4.13,10.33-3.92,15.91-4.13,14.15-.52,28.09-4.85,39.97-12.39ZM121.91,291.01v-.31c0-.1-.1-.21-.21-.21-.41-.41-1.14-.52-1.65-.31-.62.21-1.14.52-1.65.83-.83.52-1.86.72-2.79,1.14-.83.41-1.65.83-2.48,1.34-4.65,2.69-8.78,6.4-11.77,10.84-3.51,5.47-9.3,9.71-14.67,12.6-1.65.93-3.3,1.76-4.54,3-1.14,1.24-1.55,3-.52,4.34,1.03,1.14,3,1.14,4.75,1.65,13.43,4.13,20.97-3.3,26.23-9.71,2.07-2.48,3.82-5.37,5.16-8.47,1.14-2.48,1.96-5.06,2.48-7.64.31-1.24.52-2.58.62-3.82.1-.62.1-1.34.21-1.96v-.1c.1-.21.1-.41.1-.62v-.83c.1-.21.21-.41.31-.52.21-.41.31-.83.41-1.24Z"/>
    <path class="cls-7" d="M129.96,273.55c.1-.21.21-.31.31-.52l-10.22,32.64c.21-1.34.41-2.69.72-4.03,1.86-9.19,4.34-20.04,9.19-28.09Z"/>
    <path class="cls-7" d="M121.91,290.7v.31c-.1.41-.21.83-.41,1.24-.1.1-.21.31-.31.52v.83c0,.21,0,.41-.1.62v.1c-.1.62-.1,1.34-.21,1.96-.1,1.24-.31,2.58-.62,3.82-.52,2.58-1.34,5.16-2.48,7.64-1.34,3.1-3.1,5.99-5.16,8.47-5.27,6.4-12.81,13.84-26.23,9.71-1.76-.52-3.72-.52-4.75-1.65-1.03-1.34-.62-3.1.52-4.34,1.24-1.24,2.89-2.07,4.54-3,5.37-2.89,11.15-7.13,14.67-12.6,3-4.44,7.13-8.16,11.77-10.84.83-.52,1.65-.93,2.48-1.34.93-.41,1.96-.62,2.79-1.14.52-.31,1.03-.62,1.65-.83.52-.21,1.24-.1,1.65.31.1,0,.21.1.21.21Z"/>
  </g>
  <g>
    <path class="cls-3" d="M167.97,277.68c-7.54-3-14.87-6.71-21.79-11.26-21.48-13.84-40.8-30.05-46.37-55.98-4.85-23.24-2.58-48.03,6.71-69.92,6.51-15.39,16.42-29.33,28.82-40.69,3.92-3.51,16.21-9.71,17.04-14.87.52-3-3.61-8.78-4.75-11.67-1.45-3.51-2.58-7.23-2.89-11.05-.72-9.5,1.14-19.21,6.3-27.27,3.41-5.27,8.16-9.5,13.53-12.7,6.71-3.82,14.56-5.89,22.41-5.37,13.94.93,27.16,9.91,33.26,22.62,5.68,11.98,4.75,26.96-2.38,38.21-.52.72,0,1.76.93,1.76,7.13,0,14.05,1.86,21.17,1.86,3.51,0,7.02.72,10.22,2.07.93.31,4.03,1.65,6.09,3,.72.52,1.76,0,1.76-.93.1-14.46,4.75-29.02,14.56-39.66,10.33-11.36,26.75-17.56,41.73-13.84,8.99,2.27,16.94,7.75,23.44,14.25,6.71,6.71,12.29,14.98,14.25,24.27,2.17,10.22-.41,21.38-6.82,29.54-6.61,8.57-15.29,11.67-25.2,13.74-.83.21-1.24,1.14-.72,1.86,3.1,3.92,7.75,7.33,10.95,11.36,3.92,4.96,7.44,10.22,10.33,15.91,13.01,24.99,15.7,56.7,6.82,83.45-8.99,27.37-29.74,50.09-55.67,62.38"/>
    <path class="cls-3" d="M131.41,269.52c-11.88,7.54-25.82,11.88-39.97,12.39-5.58.21-11.98,0-15.91,4.13-3.82,4.13-3.3,10.64-2.58,16.21,1.34,9.4,3.51,20.24,11.98,24.58,6.4,3.3,14.46,1.45,20.35-2.69,5.89-4.13,10.02-10.22,14.05-16.21"/>
    <path class="cls-3" d="M273.42,283.98c3.3,1.34,6.61,2.38,10.02,3.2,2.79.72,5.47,1.24,8.26,1.55,7.64,1.14,15.49,1.14,23.24-.1,5.58-.83,11.88-2.17,16.42,1.14,4.54,3.41,5.27,9.81,5.58,15.49.41,9.5.21,20.55-7.23,26.34-5.68,4.44-13.94,4.13-20.45,1.14-6.51-3-11.77-8.16-16.83-13.22"/>
    <path class="cls-3" d="M222.19,166.97c-4.75-4.13-11.88-5.68-17.56-2.89-6.4,3.2-9.3,11.15-9.4,18.38-.21,12.91,11.67,28.3,25.72,20.35,12.08-6.82,10.64-27.47,1.24-35.84Z"/>
    <path class="cls-3" d="M268.98,169.45c-5.27,1.34-9.4,5.78-11.67,10.84-6.2,14.15,4.75,36.04,20.66,23.03,11.88-9.71,12.7-39.35-8.99-33.88Z"/>
    <path class="cls-3" d="M279.61,294.1c-.93-1.55-1.86-3.1-2.89-4.65-.52-.72-.93-1.34-1.45-2.07-.1-.1-.21-.31-.31-.52"/>
    <path class="cls-3" d="M289.94,314.86c-2.79-7.23-6.2-14.15-10.22-20.76"/>
    <path class="cls-3" d="M240.37,368.67c1.55,7.44,2.07,15.08,1.45,22.62-.52,6.92,4.96,12.91,11.88,12.91h24.68c3.61,0,7.44-.1,10.43-2.07,3.41-2.27,4.85-6.61,5.89-10.64,6.51-24.99,4.65-52.05-4.54-76.22"/>
    <path class="cls-3" d="M242.33,367.43c-.62.41-1.24.93-1.96,1.24-2.48,1.34-5.47,1.86-8.37,1.03-8.06-2.17-17.25-.52-23.75,4.96-6.09,5.06-9.5,13.01-9.5,20.86,0,6.3-4.54,11.77-10.95,12.29-13.94,1.24-27.99.72-39.76-6.2-14.46-8.37-22.52-24.89-26.44-41.42-4.34-17.76-4.85-36.46-1.55-54.53.21-1.34.41-2.69.72-4.03,1.86-9.19,4.34-20.04,9.19-28.09.1-.21.21-.31.31-.52,4.75-7.33,12.08-3.2,19.21-.93,6.09,1.96,12.29,3.82,18.49,5.58,8.78,2.48,17.66,4.44,26.75,5.37,9.5.93,19.42.41,28.71-1.96,5.68-1.45,11.15-3.61,16.21-6.71,4.23-2.58,8.26-5.78,13.12-6.61h.1c6.71-1.14,11.98,2.79,15.7,8.57,1.76,2.79,3.3,5.89,4.23,9.09,1.03,3.41,1.45,6.92,1.03,10.33-1.65,12.81-6.92,25.82-12.6,37.28-4.65,9.19-9.09,17.66-13.53,26.34"/>
    <path class="cls-3" d="M246.46,361.55c-.31.62-.72,1.34-1.03,2.07-.72,1.45-1.76,2.69-3,3.72"/>
    <path class="cls-3" d="M202.67,220.78c6.92,16.52,20.45,26.34,35.63,25.72s31.5-11.57,43.17-28.82"/>
    <path class="cls-3" d="M190.59,146.72c-14.46,7.13-24.99,21.79-27.06,37.8"/>
    <path class="cls-3" d="M303.88,170.27c.93,6.2.62,12.6-1.24,18.59"/>
    <path class="cls-3" d="M294.18,149.93c3.3,3.61,5.78,7.95,7.54,12.6"/>
    <path class="cls-3" d="M232.52,202.7c3.72-4.44,12.19-1.34,15.8.62,3.3,1.86,4.65,6.4,3.2,9.91s-5.27,5.78-9.09,5.68c-3.72,0-7.23-2.17-9.19-5.37-1.96-3.2-2.17-7.33-.72-10.84Z"/>
    <path class="cls-3" d="M188,43.03c-6.4-3-14.56.21-18.38,6.2-3.72,5.89-3.72,13.63-1.45,20.35.41,1.14.93,2.38,1.96,3,1.86,1.03,4.13-.31,5.89-1.45,5.58-3.51,17.45-2.79,20.55-8.68,3.3-6.4-2.89-16.63-8.57-19.42Z"/>
    <path class="cls-3" d="M310.39,99.42c4.23-4.44,8.47-8.99,11.15-14.56,2.58-5.58,3.2-12.39,0-17.66-2.89-4.85-8.57-7.64-14.25-8.06-8.68-.72-27.89,7.23-24.58,18.9,1.24,4.44,7.13,6.61,10.74,8.68,6.09,3.61,11.77,7.75,16.94,12.7Z"/>
    <path class="cls-3" d="M226.42,194.13c2.48-3,2.89-7.44,1.03-10.74s-5.89-5.27-9.71-4.65c-3.1.41-5.89,2.48-7.95,4.96-2.17,2.38-3.82,5.37-4.34,8.57-.41,3.2.52,6.61,3,8.78,2.38,2.17,6.3,2.69,8.88.72,3.3-2.48,6.51-4.54,9.09-7.64Z"/>
    <path class="cls-3" d="M271.76,205.39c1.14-.41,2.27-1.14,3.2-1.96,3.72-3.51,5.16-8.99,3.1-13.63-1.96-4.65-7.23-7.64-12.19-7.02-4.96.72-9.19,5.27-9.3,10.22-.1,5.06,4.23,9.09,8.37,11.46,1.65.93,3.51,1.55,5.47,1.24.41,0,.83-.1,1.34-.31Z"/>
    <path class="cls-4" d="M309.57,228.62c8.26-11.26,13.53-24.68,14.46-38.42,2.58-36.35-25.2-59.39-56.39-70.13-4.54-1.55-9.19-2.89-13.84-3.92-33.26-7.64-69.71-9.71-93.67,18.8-2.48,2.89-4.75,6.09-7.75,8.37-5.16,3.82-8.47,2.17-13.84,1.24-4.23-.83-11.46-1.34-12.91,4.03-1.14,4.03,2.89,7.44,6.4,9.61-2.48,3.3-7.44,3-11.67,2.89-4.13-.1-9.5,1.45-9.71,5.68-.1.72.1,1.45.31,2.07.72,1.76,2.38,3.1,4.13,3.92,2.48,1.14,5.16,1.34,7.75,2.07,7.54,2.27,13.01,8.99,15.8,16.32,2.27,6.2,1.65,12.7,3.41,18.9,1.34,4.34,4.65,8.06,7.33,11.77,7.75,10.95,18.28,19.31,29.85,25.92,17.56,10.02,37.39,16.42,57.73,16.42,20.45.1,41.21-6.4,57.63-19.52,5.68-4.54,10.84-10.02,14.98-16.01Z"/>
    <path class="cls-3" d="M301.72,162.53c.93,2.48,1.65,5.06,2.17,7.75"/>
    <path class="cls-3" d="M246.46,361.55c.41-.72.83-1.45,1.24-2.17"/>
  </g>
</svg>